<svg enable-background="new 0 0 32 32" version="1.1" viewBox="0 0 32 32" xml:space="preserve" xmlns="http://www.w3.org/2000/svg"><style type="text/css">
	.st0{fill-rule:evenodd;clip-rule:evenodd;}
</style><path class="st0" d="m19 1.7c8.2 7.6 11.1 10.7 12 11.9 0.6 0.7 1 1.5 1 2.5 0 1.1-0.5 2.1-1.2 2.7-2.2 2.5-9.4 9.4-11.8 11.8-0.2 0.3-0.5 0.5-0.8 0.7s0 0 0 0c-0.7 0.5-1.4 0.7-2.2 0.7-2 0-3.7-1.7-3.7-3.7 0-1 0.4-2 1.1-2.6 1.3-1.5 5.8-5.9 5.8-5.9h-15.3c-2-0.1-3.6-1.7-3.6-3.7s1.6-3.7 3.7-3.7h0.2 15.2l-5.3-5.5c-0.5-0.3-0.9-0.8-1.2-1.3l-0.1-0.1c-0.3-0.5-0.4-1.1-0.4-1.7 0-2 1.6-3.6 3.7-3.6 1.1 0 2.2 0.6 2.9 1.5z"/></svg>
