<svg enable-background="new 0 0 32 32" version="1.1" viewBox="0 0 32 32" xml:space="preserve" xmlns="http://www.w3.org/2000/svg"><style type="text/css">
	.st0{fill-rule:evenodd;clip-rule:evenodd;fill:#a2a2a2;}
</style><path class="st0" d="m31.9 9.7h-23.4v-2.2s0-2.1-2.1-2.1h-5.3s-1.1 0-1.1 1.1v1.1l1.1 1.1h4.3l4.3 14.9 1.1 1.1h1.1l1.1-1.1h13.8s2.7-2.9 4.3-8.5c1.3-5.8 0.8-5.4 0.8-5.4zm-19.7 14.9c-2.1 0-3.7 1.7-3.7 3.7 0 2.1 1.7 3.7 3.7 3.7 2.1 0 3.7-1.7 3.7-3.7 0.1-2.1-1.6-3.7-3.7-3.7zm0 5.3c-0.9 0-1.6-0.7-1.6-1.6s0.7-1.6 1.6-1.6 1.6 0.7 1.6 1.6-0.7 1.6-1.6 1.6zm14.9-5.3c-2.1 0-3.7 1.7-3.7 3.7 0 2.1 1.7 3.7 3.7 3.7 2.1 0 3.7-1.7 3.7-3.7 0.1-2.1-1.6-3.7-3.7-3.7zm0 5.3c-0.9 0-1.6-0.7-1.6-1.6s0.7-1.6 1.6-1.6 1.6 0.7 1.6 1.6-0.7 1.6-1.6 1.6zm-11.1-2.2v2.1h7.4v-2.1h-7.4z"/></svg>
