<?xml version="1.0" encoding="utf-8"?>
<!-- Generator: Adobe Illustrator 21.1.0, SVG Export Plug-In . SVG Version: 6.00 Build 0)  -->
<svg version="1.1" id="Слой_1" xmlns="http://www.w3.org/2000/svg" xmlns:xlink="http://www.w3.org/1999/xlink" x="0px" y="0px"
	 viewBox="0 0 32 32" style="enable-background:new 0 0 32 32;" xml:space="preserve">
<path d="M17.1,10.6c3.1,2.8,4.1,4,4.5,4.4c0.2,0.3,0.4,0.6,0.4,0.9c0,0.4-0.2,0.8-0.4,1c-0.8,0.9-3.5,3.5-4.4,4.4
	c-0.1,0.1-0.2,0.2-0.3,0.3c-0.1,0.1,0,0,0,0c-0.3,0.2-0.5,0.3-0.8,0.3c-0.7,0-1.4-0.6-1.4-1.4c0-0.4,0.1-0.7,0.4-1
	c0.5-0.6,2.2-2.2,2.2-2.2h-5.7c-0.7,0-1.3-0.6-1.3-1.4c0-0.7,0.6-1.4,1.4-1.4h0.1h5.7l-2-2.1c-0.2-0.1-0.3-0.3-0.4-0.5l0,0
	c-0.1-0.2-0.1-0.4-0.1-0.6c0-0.7,0.6-1.3,1.4-1.3C16.4,10.1,16.8,10.3,17.1,10.6z"/>
<g>
	<path d="M16,31.8C7.3,31.8,0.2,24.7,0.2,16S7.3,0.2,16,0.2S31.8,7.3,31.8,16S24.7,31.8,16,31.8z M16,2.9C8.8,2.9,2.9,8.8,2.9,16
		S8.8,29.1,16,29.1S29.1,23.2,29.1,16S23.2,2.9,16,2.9z"/>
</g>
</svg>
