<svg enable-background="new 0 0 32 32" version="1.1" viewBox="0 0 32 32" xml:space="preserve" xmlns="http://www.w3.org/2000/svg"><g transform="matrix(.51742 0 0 -.51742 10.206 11.052)"><path class="st0" d="m-2.6 3h4.9v1.2c0 1.7 0.1 3.1 0.3 4.2s0.5 2.1 0.9 3.1c0.3 0.8 0.7 1.4 1 1.8s0.8 0.9 1.4 1.5 1.3 1 2 1.4c2.4 1.1 4.9 1.6 7.8 1.6 1 0 2-0.1 2.8-0.3s2-0.5 3.2-0.9c1.3-0.4 2.2-0.8 2.7-0.8l-2.1-8.1c-1 0.6-1.6 0.9-1.9 1-0.3 0.2-0.7 0.3-1.3 0.5-0.7 0.3-1.3 0.3-1.8 0.3-1.7 0-3-0.4-3.8-1.3-0.2-0.2-0.3-0.3-0.4-0.5s-0.2-0.4-0.3-0.7-0.2-0.5-0.2-0.8c-0.1-0.3-0.1-0.5-0.1-0.8s0-0.4 0.1-0.7v-0.7-0.5s0.1-0.3 0.1-0.3v-0.1h9.8l-2.1-10-7 0.1v-28.2l-11.5 0.2v28h-4.4l-0.1 9.8z"/></g></svg>
