<svg enable-background="new 0 0 180 55" version="1.1" viewBox="0 0 180 55" xml:space="preserve" xmlns="http://www.w3.org/2000/svg"><style type="text/css">
	.st0{fill:#5DA29C;}
	.st1{font-family:"Open Sans",sans-serif;font-weight: 600;}
	.st2{font-size:14.2485px;}
	.st3{fill:#FFFFFF;}
	.st4{fill:#B11E54;}
	.st5{fill:#D21C5B;}
</style><path class="st0" d="m52.1 33.5l-8.1-4.7c-1.1-0.7-1.1-1.7 0-2.4l8.1-4.7c1.1-0.7 1.5-2.1 0.9-3.2l-4.9-8.4c-0.6-1.1-2.1-1.5-3.2-0.9l-8.1 4.7c-1.1 0.7-2.1 0.1-2.1-1.2v-9.3c0-1.3-1.1-2.4-2.4-2.4h-9.7c-1.3 0-2.4 1.1-2.4 2.4v9.4c0 1.3-0.9 1.8-2 1.2l-8.1-4.7c-1.1-0.7-2.5-0.3-3.2 0.8l-4.9 8.4c-0.6 1.1-0.3 2.6 0.9 3.2l8.1 4.7c1.1 0.7 1.1 1.7 0 2.4l-8.1 4.7c-1.1 0.6-1.5 2.1-0.9 3.2l4.9 8.4c0.7 1.1 2.1 1.5 3.2 0.9l8.1-4.7c1.1-0.7 2.1-0.1 2.1 1.2v9.4c0 1.3 1.1 2.4 2.4 2.4h9.7c1.3 0 2.4-1.1 2.4-2.4v-9.4c0-1.3 0.9-1.8 2-1.2l8.1 4.7c1.1 0.7 2.6 0.3 3.2-0.9l4.9-8.4c0.7-1.1 0.3-2.6-0.9-3.2z"/><text transform="translate(63.291 16.188)"><tspan class="st0 st1 st2" x="0" y="0">ПОРТАЛ</tspan><tspan class="st0 st1 st2" x="0" y="16.5">МЕДИЦИНСКИХ</tspan><tspan class="st0 st1 st2" x="0" y="33">ПРИБОРОВ</tspan></text>
<path class="st3" d="m44.2 25.3c0-1.3-0.2-2.4-0.6-3.5l-0.6-1.2c-1.2-2-2.7-3.4-4.5-4-1.2-0.5-2.5-0.8-3.8-0.8h-0.1c-2.7 0-5.1 1.1-6.9 3-1.8-1.9-4.3-3-6.9-3-1.2 0-2.3 0.2-3.4 0.6-0.1 0-0.2 0.1-0.4 0.1h-0.1c-3.4 1.5-5.7 4.9-5.7 8.7v0.1c0 0.7 0.1 1.5 0.3 2.2v0.2c0.2 0.7 0.4 1.4 0.7 2.1 0.3 0.6 2 3.4 2 3.4 2.9 3.8 7 6.6 8.3 7.5l0.2 0.2c1 0.7 2.2 1.4 3 2 0.9 0.6 1.4 0.9 1.4 0.9l0.5 0.3s1-0.6 1.8-1.1c0.9-0.5 2.1-1.3 3-2l0.2-0.2c0.8-0.6 2.7-1.9 4.8-3.7l1.6-1.6c1.3-1.3 2.3-2.7 3.1-4s1.3-2.5 1.6-3.8v-0.1-0.1c0.4-0.7 0.5-1.4 0.5-2.2z"/><path class="st4" d="m27.5 20.7s-0.1 0-0.2-0.1c-1.4-1.8-3.7-3-6.2-3-1 0-2 0.2-2.9 0.6-0.1 0-0.2 0.1-0.3 0.1-2.8 1.2-4.7 4-4.8 7.2v0.1c0 0.6 0.1 1.3 0.2 1.8v0.1 0.1c0.1 0.6 0.4 1.2 0.6 1.8 0.3 0.6 0.6 1.1 0.9 1.6h0.1 4.1l2.2-4.5c0.1-0.2 0.4-0.4 0.6-0.4 0.3 0 0.5 0.2 0.6 0.4l4.7 11.7 0.3-0.8 0.1-16.7zm-6.5-0.7c-2.8 0.1-5.2 2.6-5.4 5.4v0.1c-0.1 0.2-0.3 0.3-0.6 0.3-0.2 0-0.4-0.1-0.5-0.3v-0.2c0.2-3.4 3.1-6.3 6.5-6.5 0.3 0 0.5 0.2 0.5 0.6-0.1 0.3-0.3 0.6-0.5 0.6z"/><path class="st5" d="m41.8 25.4c0-0.9-0.1-1.9-0.5-2.8-0.1-0.3-0.3-0.7-0.5-1-1-1.8-2.3-2.8-3.7-3.3-1-0.4-2-0.7-3.2-0.7-2.6 0-4.8 1.2-6.3 3.1v16.6l1-2.6c0.1-0.2 0.3-0.4 0.6-0.4h8.2c1.1-1.1 2.1-2.3 2.9-3.6 0.6-1 1.1-2.1 1.4-3.2v-0.1-0.1c0.1-0.6 0.2-1.2 0.2-1.8-0.1 0-0.1 0-0.1-0.1z"/><path class="st5" d="m27.5 41.6s0.5-0.3 1.3-0.8 1.9-1.2 2.7-1.8c0.6-0.4 2.5-1.7 4.5-3.5h-6.4l-1.8 4.6c-0.1 0.1-0.2 0.3-0.3 0.3v1.2z"/><path class="st4" d="m27.2 40.6c-0.3 0-0.5-0.2-0.6-0.4l-4.8-11.8-1.7 3.5c-0.1 0.2-0.3 0.4-0.6 0.4h-3.7c2.7 3.6 6.8 6.3 7.6 6.9s1.9 1.3 2.7 1.8 1.3 0.8 1.3 0.8 0 0 0 0v-1.1c0-0.2-0.1-0.1-0.2-0.1z"/></svg>
