<svg id="Слой_1__x28_копия_x29_" enable-background="new 0 0 32 32" version="1.1" viewBox="0 0 32 32" xml:space="preserve" xmlns="http://www.w3.org/2000/svg"><path style="fill-rule:evenodd;clip-rule:evenodd;fill:#e77075;" d="m28 4.9c-1.7-1.1-4.1-0.6-5.2 1.2-0.1 0.1-0.1 0.1-0.1 0.2-0.2 0.3-4.2 6.7-6.5 10.5-0.3 0.5-0.6 1-0.9 1.5-0.4 0.6-0.7 1.1-1 1.6l-0.6-0.9-5.7-8.7c-1-1.3-2.9-1.7-4.3-0.8s-1.9 2.8-0.9 4.3c0 0.1 0 0.1 0.1 0.1 0.1 0.2 3.5 5.5 5.5 8.6 0.3 0.4 0.5 0.8 0.8 1.2 1.4 2.2 2.7 4.1 2.8 4.3 0 0.1 0 0.1 0.1 0.1 0.7 1 1.8 1.5 2.9 1.4 1.3 0 2.5-0.6 3.3-1.7l3.4-5.6 0.9-1.5 6.7-10.8c0.9-1.6 0.4-3.9-1.3-5z"/></svg>
