<?xml version="1.0" encoding="utf-8"?>
<!-- Generator: Adobe Illustrator 21.1.0, SVG Export Plug-In . SVG Version: 6.00 Build 0)  -->
<svg version="1.1" id="Слой_1" xmlns="http://www.w3.org/2000/svg" xmlns:xlink="http://www.w3.org/1999/xlink" x="0px" y="0px"
	 viewBox="0 0 32 32" style="enable-background:new 0 0 32 32;" xml:space="preserve">
<g>
	<g>
		<path d="M26.4,6.4L26.4,6.4c-0.5-0.5-1-1-1.6-1.4l-0.1,0l-0.1,0c-0.3-0.2-0.6-0.2-0.9-0.2c-0.9,0-1.6,0.7-1.6,1.6
			c0,0.5,0.3,1,0.7,1.3c0.4,0.3,0.8,0.7,1.2,1.1c2.2,2.2,3.4,5.2,3.4,8.3c0,3.1-1.2,6.1-3.4,8.3c-2.2,2.2-5.1,3.4-8.2,3.4h0l-0.6,0
			c-2.9-0.1-5.6-1.3-7.6-3.4c-2.2-2.2-3.4-5.1-3.4-8.3c0-3.1,1.2-6.1,3.4-8.3c0.3-0.3,0.7-0.7,1-0.9l0.1-0.1
			c0.5-0.3,0.7-0.8,0.7-1.4c0-0.9-0.7-1.6-1.6-1.6c-0.3,0-0.7,0.1-1,0.3l-0.1,0c-0.5,0.4-1,0.8-1.5,1.3C2.5,9.2,1,13,1,17v0
			c0,4,1.5,7.8,4.4,10.6c2.4,2.4,5.6,4,9,4.3c0,0,0,0,0,0c0.3,0,0.5,0,0.7,0.1c0.1,0,0.1,0,0.2,0l0.3,0c0.1,0,0.2,0,0.2,0h0
			c4,0,7.7-1.6,10.5-4.4c2.8-2.8,4.3-6.5,4.4-10.5l0-0.1C30.7,13,29.2,9.2,26.4,6.4z M15.7,18l0.3,0c0.8,0,1.5-0.7,1.5-1.5v-15
			C17.5,0.7,16.8,0,16,0l-0.3,0c-0.8,0-1.5,0.7-1.5,1.5l0,15C14.2,17.3,14.9,18,15.7,18z"/>
	</g>
</g>
</svg>
