<svg xmlns="http://www.w3.org/2000/svg" xmlns:xlink="http://www.w3.org/1999/xlink" width="13" height="13" viewBox="0 0 13 13"><defs><path id="4xzla" d="M854.2 804.99l-1.84-1.84-.71.72v.83h1v1h.83zm3.2-6.71c-.05 0-.1.01-.14.05l-4.23 4.24a.18.18 0 0 0-.06.13c0 .1.07.17.18.17.04 0 .09-.01.13-.05l4.23-4.24a.18.18 0 0 0 .06-.13c0-.1-.07-.17-.17-.17zm3 1.92l-6.5 6.5h-3.25v-3.25l6.5-6.5zm1.8-1.8l-1.3 1.3-3.25-3.25 1.3-1.29c.17-.19.43-.3.7-.3.26 0 .52.11.7.3l1.84 1.83c.18.19.3.45.3.71a1 1 0 0 1-.3.7z"/></defs><g><g transform="translate(-850 -794)"><use fill="#5da29c" xlink:href="#4xzla"/></g></g></svg>