<svg enable-background="new 0 0 240 240" version="1.1" viewBox="0 0 240 240" xml:space="preserve" xmlns="http://www.w3.org/2000/svg"><style type="text/css">
	.st0{fill:#5DA29C;}
	.st1{opacity:0.2;fill:#231F20;}
	.st2{fill:#414042;}
	.st3{fill:#E6E7E8;}
	.st4{opacity:0.3;fill:#FFFFFF;}
	.st5{fill:#EF4351;}
	.st6{opacity:0.1;fill:url(#SVGID_1_);}
	.st7{opacity:0.1;fill:url(#SVGID_2_);}
	.st8{fill:#FFFFFF;}
	.st9{fill:#005B7F;}
	.st10{fill:#00445F;}
	.st11{fill:#6D6E71;}
	.st12{fill:#808285;}
	.st13{opacity:0.1;}
</style><circle class="st0" cx="120.8" cy="120.4" r="71"/><path class="st1" d="m177.3 87.4h-110.8c-2.7 0-4.8 2.2-4.8 4.8v75.3c0 2.7 2.2 4.8 4.8 4.8h110.8c2.7 0 4.8-2.2 4.8-4.8v-75.3c0-2.7-2.1-4.8-4.8-4.8z"/><path class="st2" d="m175.1 85.2h-110.8c-2.7 0-4.8 2.2-4.8 4.8v75.3c0 2.7 2.2 4.8 4.8 4.8h110.8c2.7 0 4.8-2.2 4.8-4.8v-75.3c0-2.6-2.1-4.8-4.8-4.8z"/><rect class="st3" x="69.1" y="94.9" width="101.2" height="65.6"/><path class="st4" d="m175.1 85.2h-110.8c-2.7 0-4.8 2.2-4.8 4.8v74.6c1-0.7 1.9-1.3 2.9-2 26-17.6 52.6-34.4 79.3-51 12.6-7.8 25.1-15.6 38.2-22.6-0.5-2.2-2.5-3.8-4.8-3.8z"/><path class="st5" d="m133.6 104.4c-7.7 0-13.9 6.8-13.9 15.2 0-8.4-6.2-15.2-13.9-15.2s-13.9 6.8-13.9 15.2c0 2.8 0.8 5.7 2.1 8.5l1.9-0.1 2.4-0.1c1.6 0 3.2-0.1 4.9-0.1l4.9-0.1 4.9-0.1 4.9-0.1h2.4 1.8l0.2-0.6 0.5-1.2 0.5-1.2c0.2-0.4 0.3-0.8 0.5-1.2l1-2.4 1-2.4 1.4-3.5 0.7 3.7 0.2 1.2 0.2 1.2 0.5 2.4 0.2 1.2 0.2 1.2 0.5 2.4 0.2 1.2 0.2 1.2 0.4 2.4 0.3 1.7c0.2-0.6 0.5-1.1 0.7-1.7l0.5-1.2 0.5-1.2 1-2.3 0.2-0.4h0.4 7.4 4.1c1.3-2.8 2-5.6 2-8.4-0.1-8.4-6.3-15.2-14-15.2z"/><path class="st5" d="m134.5 129.3l-0.7 2-0.4 1.2-0.4 1.2c-0.3 0.8-0.6 1.6-0.8 2.4l-0.8 2.4-1.1 3.1-0.7-3.2c-0.2-0.8-0.3-1.6-0.5-2.4l-0.5-2.4-0.5-2.4-0.3-1.2-0.2-1.2-0.5-2.4-0.2-1.2-0.2-1.2-0.2-1.2-0.6 1.4c-0.2 0.4-0.3 0.8-0.5 1.2l-0.5 1.2-0.5 1.2-0.5 1.2-0.3 0.6h-0.6-2.4-2.4l-4.9-0.1-4.9-0.1-4.9-0.1c-1.6 0-3.2-0.1-4.9-0.1l-2.4-0.1h-1.5c6.8 13.6 25.4 25.5 25.4 25.5s18.5-11.9 25.3-25.4l-3.7 0.1h-7.2z"/><linearGradient id="SVGID_1_" x1="111.05" x2="44.78" y1="146.29" y2="77.588" gradientUnits="userSpaceOnUse"><stop stop-color="#fff" offset="0"/><stop offset="1"/></linearGradient><path class="st6" d="m66.5 76.4l-11.3-1.7-19.8-2.6s-6.1 7.8-6.1 16.8c0.3 49.3 32.3 56.1 32.3 56.1l28.3 28.3 58.6-45.2-62.2-57.3-19.8 5.6z"/><linearGradient id="SVGID_2_" x1="128.06" x2="107.4" y1="201.55" y2="178.13" gradientUnits="userSpaceOnUse"><stop stop-color="#fff" offset="0"/><stop offset="1"/></linearGradient><polygon class="st7" points="110.3 152 109.8 173.2 107.1 182.4 100.8 188.8 92.7 190.3 78.2 190.3 63.3 185.5 104.5 226.7 155 174.7 117 136.7"/><path class="st1" d="m111.5 135.6c-5.9 0-10.7 4.8-10.7 10.7 0 5.4 4.1 9.9 9.3 10.6v17.8c0 8.6-7 15.5-15.5 15.5h-15.7c-8.6 0-15.5-7-15.5-15.5v-27.7c5.9-0.5 11.4-4 16-10.2 3.7-4.9 5.6-9.8 5.7-10l-0.6-0.2c1.5-3.2 3.5-8.1 5.1-13.9 2.7-9.6 4.9-24 0.1-37.5-0.4-1.2-1.3-2.1-2.6-2.7-4.1-1.9-11.7 0.2-14.6 1.2-0.5-0.4-1.1-0.6-1.8-0.4l-3 1.1c-0.9 0.3-1.4 1.3-1.1 2.2s1.3 1.4 2.2 1.1l3-1.1c0.6-0.2 1-0.7 1.1-1.3 2.8-0.9 9.9-2.9 13.4-1.3 0.8 0.4 1.4 1 1.7 1.8 4.7 13.1 2.5 27.1-0.1 36.5-1.6 5.9-3.6 10.7-5.1 13.8l-0.8-0.3c-0.1 0.2-7.1 18.2-20.3 18.2s-20.3-18-20.3-18.2l-0.8 0.3c-1.4-3.1-3.4-8-5.1-13.8-2.6-9.4-4.7-23.3-0.1-36.5 0.3-0.8 0.8-1.4 1.7-1.8 3.5-1.7 10.7 0.4 13.4 1.3 0.1 0.6 0.5 1.1 1.1 1.3l3 1.1c0.9 0.3 1.9-0.1 2.2-1.1 0.3-0.9-0.1-1.9-1.1-2.2l-3-1.1c-0.6-0.2-1.3-0.1-1.8 0.4-3-1-10.5-3.1-14.6-1.2-1.3 0.6-2.1 1.5-2.6 2.7-4.8 13.6-2.6 27.9 0.1 37.5 1.6 5.9 3.6 10.8 5.1 13.9l-0.6 0.2c0.1 0.2 2 5.1 5.7 10 4.7 6.1 10.2 9.6 16 10.2v27.7c0 10.3 8.4 18.7 18.7 18.7h15.7c10.3 0 18.7-8.4 18.7-18.7v-17.9c5.1-0.8 8.9-5.2 8.9-10.5 0.2-5.9-4.6-10.7-10.5-10.7z"/><path class="st3" d="m34.7 70.6c-1.3 0.6-2.1 1.5-2.6 2.7-4.8 13.6-2.6 27.9 0.1 37.5 2.9 10.4 7 17.8 7 17.8l1.5-0.8c0-0.1-4-7.3-6.9-17.5-2.6-9.4-4.7-23.3-0.1-36.5 0.3-0.8 0.8-1.4 1.7-1.8 4.4-2.1 14.4 1.6 14.5 1.7l0.6-1.6c-0.4-0.1-10.7-3.9-15.8-1.5z"/><path class="st8" d="m34.7 70.6c-1.3 0.6-2.1 1.5-2.6 2.7-4.6 13-2.8 26.6-0.3 36.2-0.7-4.3-1.7-8.6-1.7-13 0.2-26.8 4.6-25.7 8.5-25.9 3.7-0.1 7.1 0.8 10.7 1.6 0.4 0.1 0.7 0.2 1 0.4l0.2-0.6c-0.4 0-10.7-3.8-15.8-1.4z"/><path class="st3" d="m54.2 72.5l-3-1.1c-0.9-0.3-1.9 0.1-2.2 1.1-0.3 0.9 0.1 1.9 1.1 2.2l3 1.1c0.9 0.3 1.9-0.1 2.2-1.1 0.2-0.9-0.2-1.9-1.1-2.2z"/><path class="st8" d="m52.4 72.4l-1.9-0.7c-0.6-0.2-1.2 0.1-1.4 0.7s0.1 1.2 0.7 1.4l1.9 0.7c0.6 0.2 1.2-0.1 1.4-0.7s-0.1-1.2-0.7-1.4z"/><path class="st3" d="m85.3 70.6c-5.1-2.4-15.4 1.4-15.9 1.6l0.6 1.6c0.1 0 10.1-3.7 14.5-1.7 0.8 0.4 1.4 1 1.7 1.8 4.7 13.1 2.5 27.1-0.1 36.5-2.8 10.2-6.8 17.4-6.9 17.5l1.5 0.8c0-0.1 4.1-7.4 7-17.8 2.7-9.6 4.9-24 0.1-37.5-0.3-1.3-1.2-2.2-2.5-2.8z"/><path class="st8" d="m87.9 73.3c-0.4-1.2-1.3-2.1-2.6-2.7-5.1-2.4-15.4 1.4-15.9 1.6l0.4 1.1c3.5-3.1 10.1-2.8 14.1-2 1.6 0.3 2.6 2 2.6 3.6 4.2 12.8 2.1 26.2-0.4 35.4-1.5 5.5-3.4 10.2-4.8 13.3 0.5-0.6 0.9-1.2 1.2-2.1 0.6-1.7 6-12 7.2-26.6 0.3-3.7-0.1-7.5-0.5-11.2 0.1-0.9-0.4-7.7-1.3-10.4z"/><path class="st3" d="m68.9 71.4l-3 1.1c-0.9 0.3-1.4 1.3-1.1 2.2s1.3 1.4 2.2 1.1l3-1.1c0.9-0.3 1.4-1.3 1.1-2.2s-1.3-1.4-2.2-1.1z"/><path class="st8" d="m67.8 72.2l-1.9 0.7c-0.6 0.2-0.9 0.8-0.7 1.4s0.8 0.9 1.4 0.7l1.9-0.7c0.6-0.2 0.9-0.8 0.7-1.4-0.3-0.6-0.9-0.9-1.4-0.7z"/><path class="st9" d="m60 142.1c-13.2 0-20.3-18-20.3-18.2l-1.2 0.5-1.8 0.7c0.1 0.2 2 5.1 5.7 10 5.1 6.7 11.2 10.2 17.6 10.2s12.5-3.5 17.6-10.2c3.7-4.9 5.6-9.8 5.7-10l-3-1.1c0 0.1-7.1 18.1-20.3 18.1z"/><path class="st10" d="m75.9 134.5c-13.7 15.2-26.4 7.1-31 2.6-1.3-1.2-2.6-2.5-3.8-3.8 0.4 0.6 0.8 1.1 1.2 1.7 5.1 6.7 11.2 10.2 17.6 10.2s12.5-3.5 17.6-10.2c3.7-4.9 5.6-9.8 5.7-10l-1.9-0.7c-0.9 3.8-2.8 7.3-5.4 10.2z"/><path class="st9" d="m108.4 172.9c0 8.6-7 15.5-15.5 15.5h-15.8c-8.6 0-15.5-7-15.5-15.5v-27.9h-3.2v27.9c0 10.3 8.4 18.7 18.7 18.7h15.7c10.3 0 18.7-8.4 18.7-18.7v-18.5h-3.2v18.5z"/><path class="st10" d="m61.6 145h-1.2c0.3 0.6 0.4 22.8 0.4 25.2 0 2.3 0.4 7.4 1.7 8.1-0.6-1.7-0.9-3.4-0.9-5.3v-28z"/><path class="st10" d="m110.4 157c-0.6 9 3.4 19.4-6.1 28.7-5.4 5.3-22.8 3.9-27.7 3.8-3.9-0.1-7.4-0.7-10.9-1.9 3.2 2.5 7.2 3.9 11.5 3.9h15.7c10.3 0 18.7-8.4 18.7-18.7v-18.5h-1.9c0.5 0.8 0.8 1.7 0.7 2.7z"/><ellipse class="st3" cx="109.8" cy="144.5" rx="9.5" ry="9.5"/><path class="st11" d="m109.8 133.9c-5.9 0-10.7 4.8-10.7 10.7s4.8 10.7 10.7 10.7 10.7-4.8 10.7-10.7-4.8-10.7-10.7-10.7zm0 18.9c-4.6 0-8.4-3.7-8.4-8.3s3.7-8.3 8.4-8.3c4.6 0 8.4 3.7 8.4 8.3s-3.8 8.3-8.4 8.3z"/><path class="st12" d="m109.8 138.2c-3.7 0-6.7 2.8-6.7 6.3s3 6.3 6.7 6.3 6.7-2.8 6.7-6.3-3-6.3-6.7-6.3zm0 11.4c-3 0-5.5-2.3-5.5-5.1s2.4-5.1 5.5-5.1c3 0 5.5 2.3 5.5 5.1s-2.5 5.1-5.5 5.1z"/><path class="st13" d="m100.7 149.7c1.8 3.1 5.2 5.2 9.1 5.2 5.8 0 10.5-4.7 10.5-10.4 0-1.9-0.5-3.7-1.4-5.2-7 11.3-17.4 10.2-18.2 10.4z"/></svg>
