<svg enable-background="new 0 0 240 240" version="1.1" viewBox="0 0 240 240" xml:space="preserve" xmlns="http://www.w3.org/2000/svg"><style type="text/css">
	.st0{fill:#5DA29C;}
	.st1{opacity:0.1;fill:url(#SVGID_1_);}
	.st2{opacity:0.2;fill:#231F20;}
	.st3{fill:#005B7F;}
	.st4{fill:#D1D3D4;}
	.st5{fill:#F1F2F2;}
	.st6{fill:#A7A9AC;}
	.st7{fill:#58595B;}
	.st8{fill:#939598;}
	.st9{fill:#BCBEC0;}
	.st10{opacity:0.15;fill:#231F20;}
	.st11{fill:#342E2F;}
	.st12{fill:#867D7E;}
	.st13{fill:#6D6E71;}
	.st14{opacity:0.5;fill:#D0ECF6;}
	.st15{opacity:0.6;fill:#FFFFFF;}
	.st16{fill:#EF4351;}
</style><circle class="st0" cx="120.9" cy="120.6" r="71"/><linearGradient id="SVGID_1_" x1="161.94" x2="112.71" y1="174.31" y2="104.74" gradientUnits="userSpaceOnUse"><stop stop-color="#fff" offset=".097757"/><stop offset="1"/></linearGradient><polygon class="st1" points="65.8 172.3 111.7 218.3 231.2 138.4 163.5 48.3"/><path class="st2" d="m165.8 49.8h-97.3c-0.8 0-1.4 0.6-1.4 1.3v123.9c0 0.7 0.6 1.3 1.4 1.3h97.3c0.8 0 1.4-0.6 1.4-1.3v-123.9c0-0.8-0.6-1.3-1.4-1.3z"/><path class="st3" d="m163.2 47.1h-97.3c-0.8 0-1.4 0.6-1.4 1.3v123.9c0 0.7 0.6 1.3 1.4 1.3h97.3c0.8 0 1.4-0.6 1.4-1.3v-123.9c0-0.7-0.7-1.3-1.4-1.3z"/><rect class="st4" x="75.8" y="52.5" width="80.1" height="115"/><rect class="st5" x="73.4" y="50" width="80.1" height="114.8"/><path class="st6" d="m134.5 45.9h-39.9c-1 0-1.9 0.8-1.9 1.9v11.2c0 1 0.8 1.9 1.9 1.9h39.8c1 0 1.9-0.8 1.9-1.9v-11.3c0-1-0.8-1.8-1.8-1.8zm0.7 13c0 0.4-0.4 0.8-0.8 0.8h-39.8c-0.4 0-0.8-0.4-0.8-0.8v-11.2c0-0.4 0.4-0.8 0.8-0.8h39.8c0.4 0 0.8 0.4 0.8 0.8v11.2z"/><path class="st7" d="m96.7 59.2h-2c-0.1 0-0.3-0.1-0.3-0.3v-2.5c0-0.6-0.5-1.1-1.1-1.1s-1.1 0.5-1.1 1.1v2.5c0 1.3 1.1 2.4 2.4 2.4h2c0.6 0 1.1-0.5 1.1-1.1s-0.4-1-1-1z"/><path class="st7" d="m135.8 55.3c-0.6 0-1.1 0.5-1.1 1.1v2.5c0 0.1-0.1 0.3-0.3 0.3h-2c-0.6 0-1.1 0.5-1.1 1.1s0.5 1.1 1.1 1.1h2c1.3 0 2.4-1.1 2.4-2.4v-2.5c0-0.7-0.4-1.2-1-1.2z"/><path class="st8" d="m133.3 44.5h-37.4c-0.7 0-1.3 0.6-1.3 1.3v1.1c0 0.7 0.6 1.3 1.3 1.3h37.4c0.7 0 1.3-0.6 1.3-1.3v-1.1c0-0.7-0.6-1.3-1.3-1.3z"/><path class="st9" d="m133.3 45.1h-37.4c-0.7 0-1.3 0.3-1.3 0.7v0.5c0 0.4 0.6 0.7 1.3 0.7h37.4c0.7 0 1.3-0.3 1.3-0.7v-0.5c0-0.4-0.6-0.7-1.3-0.7z"/><circle class="st7" cx="91.1" cy="121.3" r="2.1"/><path class="st7" d="m93.4 123.8h-4.7c-1.1 0-2 0.9-2 2v7.7c0 0.5 0.4 0.9 0.9 0.9s0.9-0.4 0.9-0.9v-6.9h0.3v7.3 10.9c0 0.5 0.4 1 1 1 0.5 0 1-0.4 1-1v-10.9h0.7v10.9c0 0.5 0.4 1 1 1 0.5 0 1-0.4 1-1v-10.9-7.3h0.4v6.9c0 0.5 0.4 0.9 0.9 0.9s0.9-0.4 0.9-0.9v-7.7c-0.3-1.1-1.2-2-2.3-2z"/><circle class="st7" cx="102.4" cy="121.3" r="2.1"/><path class="st7" d="m104.8 123.8h-4.7c-1.1 0-2 0.9-2 2v7.7c0 0.5 0.4 0.9 0.9 0.9s0.9-0.4 0.9-0.9v-6.9h0.3v7.3 10.9c0 0.5 0.4 1 1 1s1-0.4 1-1v-10.9h0.7v10.9c0 0.5 0.4 1 1 1 0.5 0 1-0.4 1-1v-10.9-7.3h0.4v6.9c0 0.5 0.4 0.9 0.9 0.9s0.9-0.4 0.9-0.9v-7.7c-0.4-1.1-1.2-2-2.3-2z"/><circle class="st7" cx="113.8" cy="121.3" r="2.1"/><path class="st7" d="m116.1 123.8h-4.7c-1.1 0-2 0.9-2 2v7.7c0 0.5 0.4 0.9 0.9 0.9s0.9-0.4 0.9-0.9v-6.9h0.3v7.3 10.9c0 0.5 0.4 1 1 1 0.5 0 1-0.4 1-1v-10.9h0.7v10.9c0 0.5 0.4 1 1 1 0.5 0 1-0.4 1-1v-10.9-7.3h0.4v6.9c0 0.5 0.4 0.9 0.9 0.9s0.9-0.4 0.9-0.9v-7.7c-0.3-1.1-1.2-2-2.3-2z"/><circle class="st7" cx="91.1" cy="74.6" r="2.1"/><path class="st7" d="m93.4 77.1h-4.7c-1.1 0-2 0.9-2 2v7.7c0 0.5 0.4 0.9 0.9 0.9s0.9-0.4 0.9-0.9v-6.9h0.3v7.3 10.9c0 0.5 0.4 1 1 1 0.5 0 1-0.4 1-1v-11h0.7v10.9c0 0.5 0.4 1 1 1 0.5 0 1-0.4 1-1v-10.9-7.3h0.4v6.9c0 0.5 0.4 0.9 0.9 0.9s0.9-0.4 0.9-0.9v-7.7c-0.3-1-1.2-1.9-2.3-1.9z"/><circle class="st7" cx="102.4" cy="74.6" r="2.1"/><path class="st7" d="m104.8 77.1h-4.7c-1.1 0-2 0.9-2 2v7.7c0 0.5 0.4 0.9 0.9 0.9s0.9-0.4 0.9-0.9v-6.9h0.3v7.3 10.9c0 0.5 0.4 1 1 1s1-0.4 1-1v-11h0.7v10.9c0 0.5 0.4 1 1 1 0.5 0 1-0.4 1-1v-10.9-7.3h0.4v6.9c0 0.5 0.4 0.9 0.9 0.9s0.9-0.4 0.9-0.9v-7.7c-0.4-1-1.2-1.9-2.3-1.9z"/><circle class="st7" cx="113.8" cy="74.6" r="2.1"/><path class="st7" d="m116.1 77.1h-4.7c-1.1 0-2 0.9-2 2v7.7c0 0.5 0.4 0.9 0.9 0.9s0.9-0.4 0.9-0.9v-6.9h0.3v7.3 10.9c0 0.5 0.4 1 1 1 0.5 0 1-0.4 1-1v-11h0.7v10.9c0 0.5 0.4 1 1 1 0.5 0 1-0.4 1-1v-10.9-7.3h0.4v6.9c0 0.5 0.4 0.9 0.9 0.9s0.9-0.4 0.9-0.9v-7.7c-0.3-1-1.2-1.9-2.3-1.9z"/><circle class="st7" cx="125.8" cy="74.6" r="2.1"/><path class="st7" d="m128.2 77.1h-4.7c-1.1 0-2 0.9-2 2v7.7c0 0.5 0.4 0.9 0.9 0.9s0.9-0.4 0.9-0.9v-6.9h0.3v7.3 10.9c0 0.5 0.4 1 1 1 0.5 0 1-0.4 1-1v-11h0.7v10.9c0 0.5 0.4 1 1 1 0.5 0 1-0.4 1-1v-10.9-7.3h0.4v6.9c0 0.5 0.4 0.9 0.9 0.9s0.9-0.4 0.9-0.9v-7.7c-0.4-1-1.3-1.9-2.3-1.9z"/><circle class="st7" cx="136.8" cy="74.6" r="2.1"/><path class="st7" d="m139.2 77.1h-4.7c-1.1 0-2 0.9-2 2v7.7c0 0.5 0.4 0.9 0.9 0.9s0.9-0.4 0.9-0.9v-6.9h0.3v7.3 10.9c0 0.5 0.4 1 1 1 0.5 0 1-0.4 1-1v-11h0.7v10.9c0 0.5 0.4 1 1 1 0.5 0 1-0.4 1-1v-10.9-7.3h0.4v6.9c0 0.5 0.4 0.9 0.9 0.9s0.9-0.4 0.9-0.9v-7.7c-0.4-1-1.2-1.9-2.3-1.9z"/><path class="st10" d="m174.1 156.2c-0.8-0.8-2.1-0.9-3-0.2l-3.6-3.6c1.4-1.7 2.6-3.5 3.6-5.4 0.1-0.3 0.2-0.5 0.2-0.8 5.6-11.4 3.7-25.6-5.8-35.1-11.9-11.9-31.3-11.9-43.2 0s-11.9 31.3 0 43.2c9.4 9.4 23.6 11.4 35 5.9 0.3 0 0.7 0 1-0.2 1.9-1 3.7-2.2 5.3-3.6l3.6 3.6c-0.6 0.9-0.6 2.2 0.2 3l41 41.7c0.9 0.9 2.4 0.9 3.3 0l4.1-4.1c0.9-0.9 0.9-2.4 0-3.3l-41.7-41.1z"/><rect class="st4" transform="matrix(.7071 -.7071 .7071 .7071 -62.242 166.05)" x="166.5" y="149" width="5.6" height="18.3"/><path class="st11" d="m172.5 154.7c-0.9-0.9-2.4-0.9-3.3 0l-3.4 3.4c-0.9 0.9-0.9 2.4 0 3.3l41 41.7c0.9 0.9 2.4 0.9 3.3 0l4.1-4.1c0.9-0.9 0.9-2.4 0-3.3l-41.7-41z"/><path class="st12" d="m169.2 157.9c-0.9-0.9-1.8-1.5-2.1-1.2l-0.9 0.9c-0.2 0.2 0.3 1.2 1.2 2.1l41.2 41.4c0.9 0.9 1.8 1.5 2.1 1.2l1-1c0.2-0.2-0.3-1.2-1.2-2.1l-41.3-41.3z"/><path class="st13" d="m120.7 109.5c-11.9 11.9-11.9 31.3 0 43.2s31.3 11.9 43.2 0 11.9-31.3 0-43.2-31.3-11.9-43.2 0zm41.1 41.1c-10.7 10.7-28.2 10.7-39 0-10.7-10.7-10.7-28.2 0-39 10.7-10.7 28.2-10.7 39 0 10.7 10.8 10.7 28.3 0 39z"/><ellipse class="st14" transform="matrix(.7071 -.7071 .7071 .7071 -51.048 139.03)" cx="142.3" cy="131.1" rx="29.1" ry="29.1"/><path class="st15" d="m124.5 113.2c-9.9 9.9-9.9 25.9 0 35.8 4.1 4.1 9.3 6.5 14.7 7.2-3.2-5.3-6.5-31.4 5.7-50.3-7.3-0.7-14.9 1.7-20.4 7.3z"/><path class="st11" d="m168.8 143.1c-0.9-0.4-1.9-0.1-2.3 0.7-2.5 4.9-6.6 9-11.4 11.6-0.9 0.5-1.2 1.5-0.7 2.4 0.5 0.8 1.5 1.2 2.4 0.7 2.7-1.4 5.1-3.3 7.3-5.4 2.2-2.2 4.1-4.8 5.6-7.6 0.3-0.9-0.1-2-0.9-2.4z"/><circle class="st16" cx="136.8" cy="113.2" r="3.2"/><path class="st16" d="m140.4 117h-7.2c-1.7 0-3 1.4-3 3.1v11.8c0 0.7 0.6 1.3 1.3 1.3s1.3-0.6 1.3-1.3v-10.6h0.5v11.2 16.7c0 0.8 0.7 1.5 1.5 1.5s1.5-0.7 1.5-1.5v-16.7h1v16.7c0 0.8 0.7 1.5 1.5 1.5s1.5-0.7 1.5-1.5v-16.7l-0.1-11.2h0.6v10.6c0 0.7 0.6 1.3 1.3 1.3s1.3-0.6 1.3-1.3v-11.8c0-1.7-1.3-3.1-3-3.1z"/></svg>
