<svg enable-background="new 0 0 240 240" version="1.1" viewBox="0 0 240 240" xml:space="preserve" xmlns="http://www.w3.org/2000/svg"><style type="text/css">
	.st0{fill:#5DA29C;}
	.st1{opacity:0.1;fill:url(#SVGID_1_);}
	.st2{opacity:0.2;fill:#231F20;}
	.st3{fill:#993F29;}
	.st4{fill:#BE1E2D;}
	.st5{opacity:0.1;fill:url(#SVGID_2_);}
	.st6{fill:#004456;}
	.st7{fill:#005A70;}
	.st8{fill:#4394A8;}
	.st9{fill:#CB4B57;}
	.st10{fill:#F7A08D;}
	.st11{fill:#F9BFB2;}
	.st12{opacity:0.1;fill:url(#SVGID_3_);}
	.st13{fill:#E5BB5B;}
	.st14{fill:#231F20;}
	.st15{opacity:0.2;}
	.st16{fill:#FFFFFF;}
	.st17{opacity:0.2;fill:#FFFFFF;}
</style><circle class="st0" cx="122.2" cy="121.2" r="71"/><linearGradient id="SVGID_1_" x1="214.95" x2="121.53" y1="190.02" y2="87.121" gradientUnits="userSpaceOnUse"><stop stop-color="#fff" offset=".097757"/><stop offset="1"/></linearGradient><polygon class="st1" points="117.5 185.8 171.7 238.2 239.7 114.2 156.7 30.6"/><path class="st2" d="m161.4 32.9c-0.3-0.6-1.4-1.2-2.4-1.4-0.5-0.2-1.1-0.3-1.6 0-0.1 0-0.1 0.1-0.2 0.1l-71.4 37-1.4 0.7-2.6 1.3c-1 0.5-1.4 1.8-0.9 2.9l4.5 8.8-10.9 5.7-0.1-0.2-1.5 0.8 0.1 0.2-1.7 0.9c-1 0.5-1.4 1.8-0.9 2.9l48.1 93c0.4 0.7 1.1 1.1 1.8 1.1 0.2 0.3 0.4 0.1 1.1-0.2l10.3-5.2 1.9 3.7 5.9 11.4v-3.8l3.1 2.1-5-9.7-2.7-5.3 63.3-31.8c1-0.5 1.4-1.8 0.9-2.9l-4.6-8.9 14.2-7.2c1-0.5 1.4-1.8 0.9-2.9l-48.2-93.1z"/><path class="st3" d="m148 51c-0.5-1-1.8-1.4-2.9-0.9l-75.4 39c-1 0.5-1.4 1.8-0.9 2.9l48.1 93s0.4 1 1.4 0.5l76.8-38.6c1-0.5 1.4-1.8 0.9-2.8l-48-93.1z"/><path class="st4" d="m146.6 50.5c-0.5-1-1.8-1.4-2.9-0.9l-75.4 39c-1 0.5-1.4 1.8-0.9 2.9l48.1 93c0.5 1 1.8 1.4 2.9 0.9l75.4-39c1-0.5 1.4-1.8 0.9-2.9l-48.1-93z"/><polygon class="st2" points="129.3 166.8 192.3 136.6 191.6 135"/><linearGradient id="SVGID_2_" x1="215.59" x2="166.1" y1="165.75" y2="120.66" gradientUnits="userSpaceOnUse"><stop stop-color="#fff" offset=".2236"/><stop offset="1"/></linearGradient><polygon class="st5" points="127.6 167.1 143.8 173.4 197.4 146.2 156.7 30.6"/><path class="st6" d="m158.6 32c-0.5-1-3.2-1.9-4.3-1.4l-73.9 39.5c-1 0.5-1.4 1.8-0.9 2.9l47 93.2c1.2 1.8 2.7 0.8 3.7 0.2l75.6-38.5c1-0.5 1.4-1.8 0.9-2.9l-48.1-93z"/><path class="st7" d="m157.1 31.5c-0.5-1-1.8-1.4-2.9-0.9l-75.4 39c-1 0.5-1.4 1.8-0.9 2.9l48.1 93c0.5 1 1.8 1.4 2.9 0.9l75.4-39c1-0.5 1.4-1.8 0.9-2.9l-48.1-93z"/><rect class="st8" transform="matrix(.8881 -.4596 .4596 .8881 -41.466 62.304)" x="106.4" y="61.9" width="1.6" height="108.9"/><rect class="st9" transform="matrix(.8881 -.4597 .4597 .8881 -51.121 59.827)" x="96.5" y="80.4" width="1.6" height="108.9"/><polygon class="st10" points="129.5 179.7 136.7 193.8 136.8 190.3 139.6 192.3 132.4 178.2"/><path class="st11" d="m131.3 183.2l5.4 10.6v-3.5l2.9 2-4.6-9c-1.2 0-2.5 0-3.7-0.1z"/><path class="st2" d="m138.9 55l-3 4.6s-0.2 1.1-0.6 0.8 0.5-0.9 0.5-0.9l3.1-4.5c-0.1 0-0.1 0 0 0l0.4-0.8c-0.1-0.1-0.2 0-0.3 0.1l-0.2 0.3c0 0.1-0.1 0.1-0.1 0.2-2.7 2.4-4.7 2.6-4.7 2.6-0.5 1.5-1.6 3.6-2.4 5.2-0.2-0.1-0.5-0.1-0.7 0.2l-3.4 5.2-0.4-0.2c-0.1-0.1-0.2 0-0.3 0.1l-21.6 32.4c-0.4 0-0.8 0.2-1 0.6l-0.7 1.1-0.7 1.2-9.9 15.7c-0.3 0.4-0.5 0.8-0.7 1.2l-0.3-0.2 7.1-11.6c0.2-0.1 0.3-0.2 0.4-0.3l1.5-2.8c0.2-0.3 0.1-0.7-0.2-0.9s-0.7-0.1-0.9 0.2l-9.8 15.9c-0.2 0.3-0.1 0.7 0.2 0.9s0.7 0.1 0.9-0.2l0.3-0.5 0.4 0.2c-2.1 4-2.9 8.1-1.4 9.1 1.6 1 5-1.4 7.7-5l0.3-0.3 0.2-0.2c0.3-0.4 0.6-0.8 0.8-1.2l10.5-15.8 0.6-0.8 0.7-1c0.2-0.4 0.3-0.8 0.1-1.2l20.7-33c0.1-0.1 0-0.2-0.1-0.3l-0.3-0.3 3.4-5.2c0.2-0.2 0.1-0.6-0.1-0.7 1-1.4 2.5-3.3 3.7-4.4 0 0-0.6-1.9 0.5-5.3 0.1 0 0.1-0.1 0.2-0.1l0.2-0.3c0.1-0.1 0.1-0.3 0-0.3l-0.6 0.5z"/><linearGradient id="SVGID_3_" x1="167.56" x2="114.17" y1="147.35" y2="88.544" gradientUnits="userSpaceOnUse"><stop stop-color="#fff" offset=".097757"/><stop offset="1"/></linearGradient><polygon class="st12" points="89.8 129.1 114.5 152 203.6 119.7 137.1 53.7"/><path class="st13" d="m99 103.2c-0.3-0.2-0.7-0.1-0.9 0.2l-9.7 15.9c-0.2 0.3-0.1 0.7 0.2 0.9s0.7 0.1 0.9-0.2l7.8-12.7c0.2-0.1 0.3-0.2 0.4-0.3l1.5-2.8c0.2-0.4 0.1-0.8-0.2-1z"/><path class="st13" d="m134.3 58.6s-0.2 1.1-0.6 0.8 0.5-0.9 0.5-0.9l3.2-4.9c-2.8 2.6-4.8 2.8-4.8 2.8-0.8 2.6-3.6 7.1-3.6 7.1l1.5 1 1.5 1s3-4.3 5-6.2c0 0-0.7-2 0.5-5.6l-3.2 4.9z"/><path class="st13" d="m137.4 53.3l-0.2 0.3c-0.1 0.1-0.1 0.3 0 0.3l0.5-0.8c-0.1 0-0.2 0.1-0.3 0.2z"/><path class="st13" d="m137.3 54c0.1 0.1 0.2 0 0.3-0.1l0.2-0.3c0.1-0.1 0.1-0.3 0-0.3l-0.5 0.7z"/><path class="st14" d="m128.1 68.2c-0.6-0.4-2.5-1.3-2.5-1.3-0.1-0.1-0.2 0-0.3 0.1l-22.5 33.6c-0.1 0.1 0 0.2 0.1 0.3l5.8 3.7c0.1 0.1 0.2 0 0.3-0.1l21.4-34.3c0.1-0.1 0-0.2-0.1-0.3 0 0-1.6-1.4-2.2-1.7z"/><path class="st14" d="m109.3 102.7l-4.9-3.2c-0.6-0.4-1.3-0.2-1.7 0.4l-11.3 17.9c-2.9 4.6-4.3 9.9-2.5 11 1.8 1.2 6.1-2.2 9-6.8l11.7-17.7c0.4-0.5 0.2-1.3-0.3-1.6z"/><path class="st14" d="m131.8 62.4c-0.7-0.5-1.8-0.8-1.8-0.8-0.2-0.1-0.5-0.1-0.7 0.2l-5.8 9c-0.2 0.2-0.1 0.6 0.1 0.7l3.2 2.1c0.2 0.1 0.5 0.1 0.7-0.2l5.8-9c0.2-0.2 0.1-0.6-0.1-0.7 0.1 0-0.7-0.8-1.4-1.3z"/><polygon class="st13" points="89.4 119.2 96.6 123.9 97.1 123.2 89.8 118.5"/><polygon class="st13" points="101 102.5 107.9 107 108.9 105.4 102 100.9"/><polygon class="st13" points="123.2 70.1 128.4 73.4 128.8 72.7 123.6 69.4"/><g class="st15"><path class="st16" d="m128.7 68.6c-0.2-0.2-1.1-0.4-1.1-0.4s-0.1 0-0.2 0.1l-20.8 31.7c0.2 0.1 0.5 0.2 0.7 0.4h0.1c0.2 0.1 0.4 0.2 0.6 0.4 0.4 0.3 0.7 0.5 1.1 0.8l20.4-32c0.1-0.1 0.1-0.2 0-0.2 0.1 0-0.5-0.7-0.8-0.8z"/></g><g class="st15"><path class="st16" d="m106.3 100.7c-0.2-0.2-0.7 0.2-1.1 0.8l-11 17.3c-2.8 4.4-4.9 9-4.1 9.5s4.2-3.3 7-7.7l11.2-17.2c0.4-0.6 0.5-1.2 0.2-1.3l-2.2-1.4z"/></g><g class="st15"><path class="st16" d="m132.4 62.8c-0.2-0.1-0.6-0.1-0.6-0.1-0.1 0-0.3 0.1-0.4 0.4l-3 4.7c0.2 0.1 0.5 0.3 0.7 0.4s0.4 0.3 0.6 0.4l3-4.7c0.2-0.2 0.2-0.5 0.2-0.5-0.1 0-0.2-0.4-0.5-0.6z"/></g><path class="st17" d="m132.5 62.7c0.2 0.1 0.3 0.3 0.4 0.4 1.4-1.9 3.8-5.1 3.8-5.1-0.1-0.9 0.2-2.2 0.2-2.2l-4.4 6.9z"/></svg>
