<svg enable-background="new 0 0 240 240" version="1.1" viewBox="0 0 240 240" xml:space="preserve" xmlns="http://www.w3.org/2000/svg"><style type="text/css">
	.st0{fill:#5DA29C;}
	.st1{opacity:0.1;fill:url(#SVGID_1_);}
	.st2{opacity:0.2;fill:#231F20;}
	.st3{fill:#005B7F;}
	.st4{fill:#D1D3D4;}
	.st5{fill:#F1F2F2;}
	.st6{fill:#DADADA;}
	.st7{fill:#878787;}
	.st8{fill:#A7A9AC;}
	.st9{fill:#58595B;}
	.st10{fill:#939598;}
	.st11{fill:#BCBEC0;}
	.st12{fill:#009DB9;}
</style><circle class="st0" cx="122.1" cy="121.2" r="71"/><linearGradient id="SVGID_1_" x1="165.43" x2="116.9" y1="171.4" y2="102.8" gradientUnits="userSpaceOnUse"><stop stop-color="#fff" offset=".097757"/><stop offset="1"/></linearGradient><polygon class="st1" points="64.7 174.4 110.5 220.4 240.1 131.5 162.4 50.4"/><path class="st2" d="m165.2 51.9h-97.3c-0.8 0-1.4 0.6-1.4 1.3v123.9c0 0.7 0.6 1.3 1.4 1.3h97.3c0.8 0 1.4-0.6 1.4-1.3v-123.9c0-0.7-0.6-1.3-1.4-1.3z"/><path class="st3" d="m162.5 49.2h-97.2c-0.8 0-1.4 0.6-1.4 1.3v123.9c0 0.7 0.6 1.3 1.4 1.3h97.3c0.8 0 1.4-0.6 1.4-1.3v-123.8c-0.1-0.8-0.7-1.4-1.5-1.4z"/><rect class="st4" x="75.2" y="54.7" width="80.1" height="115"/><rect class="st5" x="72.7" y="52.2" width="80.1" height="114.8"/><rect class="st6" x="81.8" y="141.8" width="28.9" height=".9"/><rect class="st6" x="81.8" y="145.4" width="28.9" height=".9"/><rect class="st6" x="81.8" y="149" width="28.9" height=".9"/><rect class="st6" x="81.8" y="152.6" width="28.9" height=".9"/><rect class="st6" x="81.8" y="156.3" width="28.9" height=".9"/><rect class="st7" x="81.8" y="111.6" width="28.9" height="1.4"/><rect class="st6" x="81.8" y="118.5" width="28.9" height=".9"/><rect class="st6" x="81.8" y="122.1" width="28.9" height=".9"/><rect class="st6" x="81.8" y="125.8" width="28.9" height=".9"/><rect class="st6" x="81.8" y="129.4" width="28.9" height=".9"/><rect class="st6" x="81.8" y="133" width="28.9" height=".9"/><rect class="st6" x="114.8" y="118.5" width="28.9" height=".9"/><rect class="st6" x="114.8" y="122.1" width="28.9" height=".9"/><rect class="st6" x="114.8" y="125.8" width="28.9" height=".9"/><rect class="st6" x="114.8" y="129.4" width="28.9" height=".9"/><rect class="st6" x="114.8" y="133" width="28.9" height=".9"/><rect class="st6" x="114.8" y="141.8" width="28.9" height=".9"/><rect class="st6" x="114.8" y="145.4" width="28.9" height=".9"/><rect class="st6" x="114.8" y="149" width="28.9" height=".9"/><rect class="st6" x="114.8" y="152.6" width="28.9" height=".9"/><rect class="st6" x="114.8" y="156.3" width="28.9" height=".9"/><path class="st8" d="m133.8 48h-39.8c-1 0-1.9 0.8-1.9 1.9v11.1c0 1 0.8 1.9 1.9 1.9h39.8c1 0 1.9-0.8 1.9-1.9v-11.1c0-1-0.9-1.9-1.9-1.9zm0.8 13c0 0.4-0.4 0.8-0.8 0.8h-39.8c-0.4 0-0.8-0.4-0.8-0.8v-11.1c0-0.4 0.4-0.8 0.8-0.8h39.8c0.4 0 0.8 0.4 0.8 0.8v11.1z"/><path class="st9" d="m96 61.3h-2c-0.1 0-0.3-0.1-0.3-0.3v-2.5c0-0.6-0.5-1.1-1.1-1.1s-1.1 0.5-1.1 1.1v2.5c0 1.3 1.1 2.4 2.4 2.4h2c0.6 0 1.1-0.5 1.1-1.1 0.1-0.5-0.4-1-1-1z"/><path class="st9" d="m135.1 57.4c-0.6 0-1.1 0.5-1.1 1.1v2.5c0 0.1-0.1 0.3-0.3 0.3h-2c-0.6 0-1.1 0.5-1.1 1.1s0.5 1.1 1.1 1.1h2c1.3 0 2.4-1.1 2.4-2.4v-2.5c0.1-0.7-0.4-1.2-1-1.2z"/><path class="st10" d="m132.7 46.7h-37.5c-0.7 0-1.3 0.6-1.3 1.3v1.1c0 0.7 0.6 1.3 1.3 1.3h37.4c0.7 0 1.3-0.6 1.3-1.3v-1.1c0.1-0.7-0.5-1.3-1.2-1.3z"/><path class="st11" d="m132.7 47.2h-37.5c-0.7 0-1.3 0.3-1.3 0.7v0.5c0 0.4 0.6 0.7 1.3 0.7h37.4c0.7 0 1.3-0.3 1.3-0.7v-0.5c0.1-0.4-0.5-0.7-1.2-0.7z"/><path class="st12" d="m129 89.1c-0.1-0.2-0.3-0.3-0.5-0.3s-0.4 0.2-0.5 0.4l-1.7 8.7-2.5-18.5c0-0.2-0.2-0.4-0.5-0.5-0.3 0-0.5 0.1-0.5 0.4l-3.6 12.4h-13.6l-1.3-2.7c-0.1-0.2-0.3-0.3-0.5-0.3s-0.4 0.2-0.5 0.4l-1.7 8.7-2.6-18.3c0-0.2-0.2-0.4-0.5-0.5-0.3 0-0.5 0.1-0.5 0.4l-3.6 12.4h-7.9v1.1h8.2c0.2 0 0.4-0.2 0.5-0.4l3-10.4 2.6 19.2c0 0.3 0.3 0.5 0.5 0.5 0.3 0 0.5-0.2 0.5-0.4l2-10.3 0.7 1.5c0.1 0.2 0.3 0.3 0.5 0.3h14.3c0.2 0 0.4-0.2 0.5-0.4l3-10.4 2.6 19.2c0 0.3 0.3 0.5 0.5 0.5 0.3 0 0.5-0.2 0.5-0.4l2-10.3 0.7 1.5c0.1 0.2 0.3 0.3 0.5 0.3h9.9v-1.1h-9.6l-0.9-2.7z"/><path class="st7" d="M82.6,75.5h-0.5v29.1c0,0.1,0.1,0.3,0.3,0.3h61.1v-0.5H82.6V75.5z"/><line class="st7" x1="82.4" x2="143.5" y1="79.4" y2="79.4"/><line class="st7" x1="82.4" x2="143.5" y1="85.9" y2="85.9"/><line class="st7" x1="82.4" x2="143.5" y1="92.4" y2="92.4"/><line class="st7" x1="82.4" x2="143.5" y1="98.9" y2="98.9"/></svg>
