<svg enable-background="new 0 0 32 32" version="1.1" viewBox="0 0 32 32" xml:space="preserve" xmlns="http://www.w3.org/2000/svg"><style type="text/css">
	.st0{fill-rule:evenodd;clip-rule:evenodd;fill:#a2a2a2;}
</style><path class="st0" d="m30.9 32h-29.8c0-3.9 4.5-7.1 10.7-8.1v-1.6c-2.5-1.5-4.3-4.2-4.3-7.3v-0.2c-1.2-0.4-2.1-1.6-2.1-3s0.9-2.5 2.1-3v-0.3c0-4.7 3.8-8.5 8.5-8.5s8.5 3.8 8.5 8.5v0.2c1.2 0.4 2.1 1.6 2.1 3s-0.9 2.5-2.1 3v0.2c0 3.2-1.7 5.9-4.3 7.3v1.6c6.2 1.1 10.7 4.3 10.7 8.2z"/></svg>
