<svg enable-background="new 0 0 32 32" version="1.1" viewBox="0 0 32 32" xml:space="preserve" xmlns="http://www.w3.org/2000/svg"><style type="text/css">
	.st0{fill-rule:evenodd;clip-rule:evenodd;fill:#272525;}
</style><path class="st0" d="m22.6 18.9c-0.4-0.4-0.5-1-0.3-1.5 0 0 1.5-3.2 1.5-5.6 0-6.5-5.3-11.8-11.9-11.8s-11.9 5.3-11.9 11.9 5.3 11.9 11.9 11.9c2.3 0 5.5-1.5 5.5-1.5 0.5-0.2 1.1-0.1 1.5 0.3l9.1 9.1c0.4 0.4 0.9 0.4 1.3 0l2.4-2.4c0.4-0.4 0.4-0.9 0-1.3l-9.1-9.1zm-10.7-0.6c-3.5 0-6.4-2.9-6.4-6.4s2.9-6.4 6.4-6.4 6.4 2.9 6.4 6.4c0 3.6-2.8 6.4-6.4 6.4z"/></svg>
