<?xml version="1.0" encoding="utf-8"?>
<!-- Generator: Adobe Illustrator 21.1.0, SVG Export Plug-In . SVG Version: 6.00 Build 0)  -->
<svg version="1.1" id="Слой_1" xmlns="http://www.w3.org/2000/svg" xmlns:xlink="http://www.w3.org/1999/xlink" x="0px" y="0px"
	 viewBox="0 0 32 32" style="enable-background:new 0 0 32 32;" xml:space="preserve">
<g>
	<path style="fill:#a2a2a2;" d="M16,32c-1.3,0-3.8-1.1-3.8-2.8v-1.3c-0.8-0.1-1.1-0.2-1.7-0.6l-0.9,0.9c-1.3,1.3-3.9,0.1-4.9-0.9c-0.5-0.5-1-1.3-1.3-2.2
		C3,24,3.2,23,3.8,22.4l0.9-0.9c-0.4-0.6-0.5-0.9-0.6-1.7c0,0,0,0,0-0.1H2.8C1.1,19.8,0,17.3,0,16s1.1-3.8,2.8-3.8h1.3
		c0.1-0.8,0.2-1.1,0.6-1.7L3.8,9.6C3.2,9,3,8,3.4,6.9C3.7,6,4.2,5.2,4.7,4.7c0.5-0.5,1.3-1,2.2-1.3C8,3,9,3.2,9.6,3.8l0.9,0.9
		c0.6-0.4,0.9-0.5,1.7-0.6c0,0,0,0,0.1,0V2.8C12.2,1.1,14.7,0,16,0s3.8,1.1,3.8,2.8v1.3c0.8,0.1,1.1,0.2,1.7,0.6l0.9-0.9
		C23,3.2,24,3,25.1,3.4c0.8,0.3,1.7,0.8,2.2,1.3c1,1,2.2,3.6,0.9,4.9l-0.9,0.9c0.4,0.6,0.5,0.9,0.6,1.7c0,0,0,0,0,0.1h1.3
		c1.8,0,2.8,2.4,2.8,3.8s-1.1,3.8-2.8,3.8h-1.3c-0.1,0.8-0.2,1.1-0.6,1.7l0.9,0.9c1.3,1.3,0.1,3.9-0.9,4.9c-1,1-3.6,2.2-4.9,0.9
		l-0.9-0.9c-0.6,0.4-0.9,0.5-1.7,0.6c0,0,0,0-0.1,0v1.3C19.8,30.9,17.3,32,16,32z M9.4,24.3l1.5,1c1,0.7,1,0.7,1.7,0.8
		c0.2,0,0.4,0.1,0.7,0.1l0.8,0.1v2.9c0,0.3,1.1,0.9,1.9,0.9c0.8,0,1.8-0.6,1.9-0.9v-2.9l0.8-0.1c0.4-0.1,0.7-0.1,0.9-0.1
		c0.6-0.1,0.6-0.1,1.5-0.7l1.5-1.1v1.6l1.1,1.1C24,27,25.4,26.6,26,26c0.6-0.6,1.1-1.9,0.9-2.3l-1.1-1.1h-1.5l1-1.5
		c0.7-1,0.7-1,0.8-1.7c0-0.2,0.1-0.4,0.1-0.7l0.1-0.8h2.9c0.3,0,0.9-1.1,0.9-1.9c0-0.8-0.6-1.8-0.9-1.9h-2.9l-0.1-0.8
		c-0.1-0.4-0.1-0.7-0.1-0.9c-0.1-0.6-0.1-0.6-0.7-1.5l-1.1-1.5h1.6l1.1-1.1C27.1,8,26.6,6.6,26,6c-0.6-0.6-1.9-1.1-2.3-0.9l-1.1,1.1
		v1.5l-1.5-1c-1-0.7-1-0.7-1.7-0.8c-0.2,0-0.4-0.1-0.7-0.1l-0.8-0.1V2.8c0-0.3-1.1-0.9-1.9-0.9c-0.8,0-1.8,0.6-1.9,0.9v2.9l-0.8,0.1
		c-0.4,0.1-0.7,0.1-0.9,0.1C11.8,6,11.8,6,10.9,6.7L9.4,7.8V6.2L8.3,5.1C8,4.9,6.6,5.4,6,6C5.4,6.6,4.9,8,5.1,8.3l1.1,1.1l1.4,0
		l-0.9,1.4c-0.7,1-0.7,1-0.8,1.7c0,0.2-0.1,0.4-0.1,0.7l-0.1,0.8H2.8c-0.3,0-0.9,1.1-0.9,1.9c0,0.8,0.6,1.8,0.9,1.9h2.9l0.1,0.8
		c0.1,0.4,0.1,0.7,0.1,0.9C6,20.2,6,20.2,6.7,21.1l1.1,1.5H6.2l-1.1,1.1C4.9,24,5.4,25.4,6,26s1.9,1.1,2.3,0.9l1.1-1.1V24.3z
		 M16,22.6c-3.6,0-6.6-3-6.6-6.6c0-3.6,3-6.6,6.6-6.6c3.6,0,6.6,3,6.6,6.6C22.6,19.6,19.6,22.6,16,22.6z M16,11.3
		c-2.6,0-4.7,2.1-4.7,4.7s2.1,4.7,4.7,4.7s4.7-2.1,4.7-4.7S18.6,11.3,16,11.3z"/>
</g>
</svg>
