<?xml version="1.0" encoding="utf-8"?>
<!-- Generator: Adobe Illustrator 21.1.0, SVG Export Plug-In . SVG Version: 6.00 Build 0)  -->
<svg version="1.1" id="Слой_1" xmlns="http://www.w3.org/2000/svg" xmlns:xlink="http://www.w3.org/1999/xlink" x="0px" y="0px"
	 viewBox="0 0 32 32" style="enable-background:new 0 0 32 32;" xml:space="preserve">
<g>
	<path d="M16,23.7L16,23.7l0,0.7h0c0,0,0,0,0,0s0.3-0.2,0.8-0.5c0.5-0.3,1.1-0.7,1.7-1.1c0.3-0.2,1.5-1,2.7-2.1l-3.9,0l-1.1,2.7
		C16.1,23.6,16.1,23.7,16,23.7z"/>
	<path d="M1.1,12.5L6,15.3c0,0,0.1,0.1,0.1,0.1c0-0.3-0.1-0.5-0.1-0.8l0,0c0-2.3,1.4-4.3,3.5-5.2l0,0c0.1,0,0.2-0.1,0.2-0.1
		c0.7-0.3,1.4-0.4,2.1-0.4c1.6,0,3.1,0.6,4.2,1.8c1.1-1.1,2.6-1.8,4.2-1.8h0c0.8,0,1.6,0.2,2.3,0.5c1.1,0.4,2,1.2,2.7,2.4
		c0.1,0.2,0.3,0.5,0.4,0.7c0.3,0.7,0.4,1.4,0.4,2.1l0,0l0,0c0,0.2,0,0.4,0,0.6l4.8-2.8c0.7-0.4,0.9-1.3,0.5-1.9l-2.9-5.1
		c-0.4-0.7-1.3-0.9-2-0.5l-4.9,2.8c-0.7,0.4-1.2,0.1-1.2-0.7V1.4c0-0.8-0.6-1.4-1.4-1.4h-5.9c-0.8,0-1.4,0.6-1.4,1.4V7
		c0,0.8-0.6,1.1-1.2,0.7L5.5,4.9c-0.7-0.4-1.6-0.2-2,0.5l-2.9,5.1C0.2,11.2,0.4,12.1,1.1,12.5z"/>
	<path d="M15.8,23.8L15.8,23.8c-0.2,0-0.3-0.1-0.4-0.2l-2.9-7.1l-1,2.1c-0.1,0.1-0.2,0.2-0.3,0.2H9c1.7,2.2,4.1,3.8,4.6,4.1
		c0.5,0.4,1.2,0.8,1.7,1.1c0.5,0.3,0.8,0.5,0.8,0.5s0,0,0,0v-0.7C15.9,23.8,15.9,23.8,15.8,23.8z"/>
	<path d="M30.9,19.5L26,16.7c-0.1-0.1-0.2-0.1-0.2-0.2c-0.2,0.6-0.5,1.2-0.8,1.8c-0.5,0.8-1.1,1.6-1.9,2.4l-1,0.9
		c-1.2,1.1-2.4,1.9-2.9,2.2L19,24c-0.6,0.4-1.3,0.9-1.8,1.2c-0.5,0.3-1.1,0.7-1.1,0.7l-0.3-0.2c0,0-0.3-0.2-0.9-0.5
		c-0.5-0.3-1.2-0.8-1.8-1.2L13,23.9c-0.8-0.6-3.3-2.3-5-4.5c0,0-1.1-1.6-1.2-2c-0.1-0.3-0.2-0.6-0.3-0.9c-0.1,0.1-0.2,0.2-0.4,0.3
		l-4.9,2.8c-0.7,0.4-0.9,1.3-0.5,1.9l2.9,5.1c0.4,0.7,1.3,0.9,2,0.5l4.9-2.8c0.7-0.4,1.2-0.1,1.2,0.7v5.6c0,0.8,0.6,1.4,1.4,1.4h5.9
		c0.8,0,1.4-0.6,1.4-1.4v-5.6c0-0.8,0.6-1.1,1.2-0.7l4.9,2.8c0.7,0.4,1.6,0.2,2-0.5l2.9-5.1C31.8,20.8,31.6,19.9,30.9,19.5z"/>
	<g>
		<path d="M16,11.8C16,11.9,16,11.9,16,11.8C16,11.9,16,11.8,16,11.8c-1-1.2-2.3-1.9-3.8-1.9c-0.6,0-1.2,0.1-1.7,0.3
			c-0.1,0-0.1,0-0.2,0.1c-1.7,0.7-2.9,2.4-2.9,4.3c0,0,0,0,0,0.1c0,0.4,0,0.8,0.1,1.1c0,0,0,0,0,0c0,0,0,0,0,0.1
			c0.1,0.4,0.2,0.7,0.4,1.1c0.2,0.3,0.3,0.7,0.5,1c0,0,0,0,0.1,0h2.5l1.3-2.7c0.1-0.1,0.2-0.2,0.4-0.2c0.2,0,0.3,0.1,0.3,0.2l2.8,7
			l0.2-0.5v0l0,0V11.8z M12,11.4c-1.7,0.1-3.2,1.5-3.3,3.2c0,0,0,0,0,0.1c0,0.1-0.2,0.2-0.3,0.2c-0.1,0-0.3-0.1-0.3-0.2
			c0,0,0-0.1,0-0.1c0.1-2,1.9-3.8,3.9-3.9c0.2,0,0.3,0.1,0.3,0.3C12.3,11.3,12.2,11.4,12,11.4z"/>
		<path d="M24.6,14.7c0-0.6-0.1-1.1-0.3-1.7c-0.1-0.2-0.2-0.4-0.3-0.6c-0.6-1.1-1.4-1.7-2.3-2c-0.6-0.3-1.2-0.4-1.9-0.4c0,0,0,0,0,0
			c0,0,0,0,0,0c-1.6,0-2.9,0.7-3.8,1.9c0,0,0,0,0,0v0l0,0v10l0.6-1.6c0.1-0.1,0.2-0.2,0.4-0.2h5c0.6-0.7,1.3-1.4,1.7-2.2
			c0.4-0.6,0.7-1.2,0.8-1.9c0,0,0,0,0-0.1c0,0,0,0,0,0C24.6,15.5,24.6,15.1,24.6,14.7C24.6,14.7,24.6,14.7,24.6,14.7z"/>
	</g>
</g>
</svg>
