<svg enable-background="new 0 0 32 32" version="1.1" viewBox="0 0 32 32" xml:space="preserve" xmlns="http://www.w3.org/2000/svg"><g transform="matrix(.53591 0 0 -.53591 3.6593 23.932)"><path d="m-6.8-4.8h0.6s0.4 0 0.6 0h0.6 0.4c5.6 0 10.7 1.8 15.2 5.3-2.6-0.1-5 0.7-7.1 2.2-2.1 1.6-3.5 3.5-4.3 6l2.4-0.2c1.1 0 2.1 0.1 3.2 0.4-1.9 0.4-3.6 1.2-5.1 2.4s-2.7 2.6-3.5 4.3c-0.9 1.7-1.3 3.5-1.3 5.4v0.1c1.7-1 3.6-1.5 5.5-1.6-1.8 1.2-3.1 2.8-4.1 4.6-0.9 1.8-1.4 3.7-1.4 5.8s0.6 4.2 1.7 6.1c6.6-8 15-12.3 25.2-12.9-0.2 0.9-0.3 1.8-0.3 2.8 0 1.2 0.2 2.4 0.5 3.6 0.6 2.1 1.7 3.9 3.4 5.4 2.4 2.3 5.2 3.4 8.5 3.4 0.6-0.1 1.2-0.1 1.9-0.2s1.3-0.2 1.9-0.4 1.2-0.5 1.8-0.8 1.1-0.7 1.7-1.1 1.1-0.9 1.6-1.4c0.4 0.1 0.7 0.2 1.1 0.3l1.2 0.3c0.4 0.1 0.8 0.2 1.2 0.4 0.4 0.1 0.8 0.3 1.1 0.4 0.4 0.1 0.7 0.3 1.1 0.5l1.1 0.5c0.4 0.2 0.7 0.4 1.1 0.6-1-3-2.8-5.2-5.5-6.8 2.4 0.3 4.8 0.9 7.1 1.9-1.7-2.4-3.7-4.6-6.1-6.3v-1.5c0-3.3-0.5-6.6-1.4-9.9-1-3.3-2.4-6.5-4.4-9.4-2-3-4.3-5.6-7-8-2.7-2.3-6-4.2-9.8-5.6s-7.9-2.1-12.2-2.1v0.1h-0.3c-6.8 0-13 1.8-18.5 5.4h0.6"/></g></svg>
