<svg enable-background="new 0 0 32 32" version="1.1" viewBox="0 0 32 32" xml:space="preserve" xmlns="http://www.w3.org/2000/svg"><g transform="matrix(.39932 0 0 -.39932 15.698 23.958)"><path d="m-0.1-3.7h4.8s1.4 0.2 2.2 1c0.7 0.7 0.7 2.1 0.7 2.1s-0.1 6.4 2.9 7.4c2.9 0.9 6.7-6.2 10.7-9 3-2.1 5.3-1.6 5.3-1.6l10.7 0.1s5.6 0.3 2.9 4.7c-0.2 0.4-1.5 3.3-8 9.2-6.7 6.2-5.8 5.2 2.3 16 4.9 6.6 6.9 10.6 6.3 12.3-0.6 1.6-4.2 1.2-4.2 1.2l-12-0.1s-0.9 0.1-1.6-0.3c-0.6-0.4-1.1-1.3-1.1-1.3s-1.9-5.1-4.5-9.4c-5.4-9.1-7.5-9.6-8.4-9-2 1.3-1.5 5.3-1.5 8.1 0.1 8.9 1.4 12.6-2.6 13.6-1.3 0.3-2.3 0.5-5.6 0.6-4.3 0-7.9 0-10-1-1.4-0.7-2.4-2.2-1.8-2.3 0.8-0.1 2.6-0.5 3.6-1.8 1.2-1.7 1.2-5.5 1.2-5.5s0.7-10.4-1.7-11.7c-1.6-0.9-3.9 0.9-8.6 9.2-2.5 4.2-4.3 8.9-4.3 8.9s-0.4 0.9-1 1.3c-0.8 0.6-1.9 0.7-1.9 0.7l-11.5-0.1s-1.7 0-2.3-0.8c-0.6-0.7 0-2 0-2s9-21 19.1-31.5c9.3-9.6 19.9-9 19.9-9"/></g></svg>
