<?xml version="1.0" encoding="utf-8"?>
<!-- Generator: Adobe Illustrator 21.1.0, SVG Export Plug-In . SVG Version: 6.00 Build 0)  -->
<svg version="1.1" id="Слой_1" xmlns="http://www.w3.org/2000/svg" xmlns:xlink="http://www.w3.org/1999/xlink" x="0px" y="0px"
	 viewBox="0 0 32 32" style="enable-background:new 0 0 32 32;" xml:space="preserve">
<g>
	<g>
		<path d="M24.8,15.1c-0.4-0.2-0.8-0.5-1.2-0.7c-0.8-0.5-1.6-1-2.4-1.5c-0.2-0.1-0.3-0.3-0.5-0.5c-0.3-0.4-0.5-0.9-0.7-1.3
			c-0.5-1.1-0.9-2.1-1.4-3.2c0,0,0-0.1,0-0.1c-0.2-0.2-0.3-0.4-0.5-0.6c-1-1-2.3-1-3.3-0.4c-0.3,0.2-0.5,0.3-0.8,0.5
			c-1.1,0.8-2.3,1.6-3.4,2.5c-0.5,0.4-1,0.8-1.4,1.2c-0.2,0.2-0.3,0.4-0.4,0.6c0,0.1-0.1,0.3-0.1,0.4c-0.3,1.1-0.5,2.1-0.7,3.2
			c-0.1,0.6-0.2,1.1-0.3,1.7c-0.1,0.5,0.1,0.8,0.6,1C8.6,18,8.9,18,9.2,18c0.3,0,0.5-0.1,0.7-0.3c0.2-0.2,0.2-0.3,0.3-0.6
			c0.1-0.6,0.2-1.2,0.3-1.8c0.1-0.6,0.2-1.3,0.4-1.9c0.1-0.6,0.2-0.7,0.8-1.2c0.4-0.3,0.8-0.6,1.2-0.8c0.1,0,0.1-0.1,0.2-0.1
			c0,0,0,0,0,0.1c-0.1,0.3-0.1,0.6-0.2,1c-0.2,1.2-0.5,2.4-0.7,3.6c-0.3,1.3-0.6,2.7-0.9,4c-0.2,0.9-0.4,1.9-0.7,2.8
			c-0.1,0.2-0.1,0.4-0.2,0.6c-1.2,1.9-2.4,3.8-3.5,5.6c-0.1,0.1-0.1,0.2-0.2,0.4c-0.1,0.1-0.1,0.3-0.1,0.4V30c0,0.1,0,0.2,0.1,0.3
			c0.2,0.5,0.6,0.8,1.1,1.1c0.5,0.2,0.9,0.2,1.4,0c0.4-0.1,0.7-0.3,0.9-0.6c0.7-1,1.3-2.1,2-3.1c0.6-0.9,1.1-1.8,1.6-2.7
			c0.1-0.3,0.3-0.6,0.4-0.9c0.3-1.1,0.5-2.3,0.7-3.4c0-0.2,0.1-0.3,0.1-0.5c0,0,0,0,0,0c0,0,0,0,0,0.1c0.6,0.6,1.2,1.2,1.7,1.8
			c0.6,0.6,1.2,1.2,1.7,1.9c0.2,0.3,0.4,0.5,0.5,0.9c0.1,0.3,0.2,0.7,0.3,1c0.2,0.7,0.3,1.5,0.5,2.2c0.2,0.8,0.3,1.6,0.4,2.4
			c0.1,0.6,0.5,1,1.1,1.2c0.3,0.1,0.6,0.1,0.9,0.1c0.4,0,0.7-0.1,1-0.3c0.3-0.2,0.5-0.5,0.6-0.8c0-0.2,0-0.4,0-0.5
			c-0.1-0.7-0.2-1.3-0.3-2c-0.1-0.7-0.2-1.4-0.3-2.1c-0.1-0.7-0.3-1.5-0.5-2.2c-0.2-0.8-0.3-0.9-0.8-1.6c-0.6-0.8-1.3-1.5-1.9-2.3
			c-0.8-0.8-1.6-1.7-2.3-2.5c0,0,0-0.1,0-0.1c0.3-1.4,0.7-2.9,1-4.3c0-0.2,0.1-0.4,0.1-0.6c0,0,0,0.1,0,0.1c0.3,0.5,0.6,1,0.9,1.5
			c0.2,0.3,0.5,0.6,0.8,0.9c0.2,0.1,0.4,0.3,0.6,0.4c1,0.7,2.1,1.3,3.2,1.9c0,0,0.1,0,0.2,0.1c0.4,0.1,0.7,0,1-0.3
			c0.2-0.2,0.3-0.5,0.4-0.8C25.4,15.7,25.2,15.4,24.8,15.1z M17.6,5.8c1.5-0.3,2.5-1.7,2.1-3.2c-0.3-1.1-1-1.7-2.1-2
			c-0.1,0-0.3,0-0.4-0.1h-0.4c0,0,0,0-0.1,0c-0.1,0-0.3,0-0.4,0.1c-1.4,0.4-2.3,1.7-2,3.1C14.7,5.2,16.1,6.1,17.6,5.8z"/>
	</g>
</g>
</svg>
